<svg xmlns="http://www.w3.org/2000/svg" viewBox="0 0 800 800" width="800" height="800">
<defs>
  <radialGradient id="bg" cx="50%" cy="42%" r="70%">
    <stop offset="0%" stop-color="#241f31"/>
    <stop offset="60%" stop-color="#170f22"/>
    <stop offset="100%" stop-color="#0d0813"/>
  </radialGradient>
  <linearGradient id="stroke" x1="0%" y1="0%" x2="100%" y2="100%">
    <stop offset="0%" stop-color="#d8c8ff"/>
    <stop offset="100%" stop-color="#8b5cf6"/>
  </linearGradient>
</defs>
<rect x="0" y="0" width="800" height="800" fill="url(#bg)"/><polygon points="400.0,140.0 625.2,270.0 625.2,530.0 400.0,660.0 174.8,530.0 174.8,270.0" fill="none" stroke="url(#stroke)" stroke-width="3" stroke-opacity="0.55"/><polygon points="400.0,168.0 600.9,284.0 600.9,516.0 400.0,632.0 199.1,516.0 199.1,284.0" fill="none" stroke="#c4b5fd" stroke-width="1" stroke-opacity="0.25"/>
<g transform="translate(400,400)">
  <path d="M 70,-115 C 20,-140 -60,-140 -95,-95 C -125,-55 -100,-15 -30,5
           C 45,25 75,55 50,95 C 20,140 -60,135 -105,95"
        fill="none" stroke="url(#stroke)" stroke-width="26" stroke-linecap="round"/>
</g>
</svg>