<svg xmlns="http://www.w3.org/2000/svg" viewBox="0 0 1920 640" width="1920" height="640">
<defs>
  <linearGradient id="bg" x1="0%" y1="0%" x2="100%" y2="100%">
    <stop offset="0%" stop-color="#150a24"/>
    <stop offset="45%" stop-color="#1f0f38"/>
    <stop offset="100%" stop-color="#0b0614"/>
  </linearGradient>
  <radialGradient id="glow" cx="72%" cy="35%" r="60%">
    <stop offset="0%" stop-color="#6d28d9" stop-opacity="0.55"/>
    <stop offset="45%" stop-color="#6d28d9" stop-opacity="0.18"/>
    <stop offset="100%" stop-color="#6d28d9" stop-opacity="0"/>
  </radialGradient>
  <radialGradient id="glow2" cx="18%" cy="80%" r="50%">
    <stop offset="0%" stop-color="#a855f7" stop-opacity="0.25"/>
    <stop offset="100%" stop-color="#a855f7" stop-opacity="0"/>
  </radialGradient>
  <filter id="soft" x="-50%" y="-50%" width="200%" height="200%">
    <feGaussianBlur stdDeviation="1.1"/>
  </filter>
</defs>
<rect x="0" y="0" width="1920" height="640" fill="url(#bg)"/><rect x="0" y="0" width="1920" height="640" fill="url(#glow)"/><rect x="0" y="0" width="1920" height="640" fill="url(#glow2)"/><g><line x1="0" y1="0" x2="0" y2="640" stroke="#a78bfa" stroke-opacity="0.045" stroke-width="1"/><line x1="64" y1="0" x2="64" y2="640" stroke="#a78bfa" stroke-opacity="0.045" stroke-width="1"/><line x1="128" y1="0" x2="128" y2="640" stroke="#a78bfa" stroke-opacity="0.045" stroke-width="1"/><line x1="192" y1="0" x2="192" y2="640" stroke="#a78bfa" stroke-opacity="0.045" stroke-width="1"/><line x1="256" y1="0" x2="256" y2="640" stroke="#a78bfa" stroke-opacity="0.045" stroke-width="1"/><line x1="320" y1="0" x2="320" y2="640" stroke="#a78bfa" stroke-opacity="0.045" stroke-width="1"/><line x1="384" y1="0" x2="384" y2="640" stroke="#a78bfa" stroke-opacity="0.045" stroke-width="1"/><line x1="448" y1="0" x2="448" y2="640" stroke="#a78bfa" stroke-opacity="0.045" stroke-width="1"/><line x1="512" y1="0" x2="512" y2="640" stroke="#a78bfa" stroke-opacity="0.045" stroke-width="1"/><line x1="576" y1="0" x2="576" y2="640" stroke="#a78bfa" stroke-opacity="0.045" stroke-width="1"/><line x1="640" y1="0" x2="640" y2="640" stroke="#a78bfa" stroke-opacity="0.045" stroke-width="1"/><line x1="704" y1="0" x2="704" y2="640" stroke="#a78bfa" stroke-opacity="0.045" stroke-width="1"/><line x1="768" y1="0" x2="768" y2="640" stroke="#a78bfa" stroke-opacity="0.045" stroke-width="1"/><line x1="832" y1="0" x2="832" y2="640" stroke="#a78bfa" stroke-opacity="0.045" stroke-width="1"/><line x1="896" y1="0" x2="896" y2="640" stroke="#a78bfa" stroke-opacity="0.045" stroke-width="1"/><line x1="960" y1="0" x2="960" y2="640" stroke="#a78bfa" stroke-opacity="0.045" stroke-width="1"/><line x1="1024" y1="0" x2="1024" y2="640" stroke="#a78bfa" stroke-opacity="0.045" stroke-width="1"/><line x1="1088" y1="0" x2="1088" y2="640" stroke="#a78bfa" stroke-opacity="0.045" stroke-width="1"/><line x1="1152" y1="0" x2="1152" y2="640" stroke="#a78bfa" stroke-opacity="0.045" stroke-width="1"/><line x1="1216" y1="0" x2="1216" y2="640" stroke="#a78bfa" stroke-opacity="0.045" stroke-width="1"/><line x1="1280" y1="0" x2="1280" y2="640" stroke="#a78bfa" stroke-opacity="0.045" stroke-width="1"/><line x1="1344" y1="0" x2="1344" y2="640" stroke="#a78bfa" stroke-opacity="0.045" stroke-width="1"/><line x1="1408" y1="0" x2="1408" y2="640" stroke="#a78bfa" stroke-opacity="0.045" stroke-width="1"/><line x1="1472" y1="0" x2="1472" y2="640" stroke="#a78bfa" stroke-opacity="0.045" stroke-width="1"/><line x1="1536" y1="0" x2="1536" y2="640" stroke="#a78bfa" stroke-opacity="0.045" stroke-width="1"/><line x1="1600" y1="0" x2="1600" y2="640" stroke="#a78bfa" stroke-opacity="0.045" stroke-width="1"/><line x1="1664" y1="0" x2="1664" y2="640" stroke="#a78bfa" stroke-opacity="0.045" stroke-width="1"/><line x1="1728" y1="0" x2="1728" y2="640" stroke="#a78bfa" stroke-opacity="0.045" stroke-width="1"/><line x1="1792" y1="0" x2="1792" y2="640" stroke="#a78bfa" stroke-opacity="0.045" stroke-width="1"/><line x1="1856" y1="0" x2="1856" y2="640" stroke="#a78bfa" stroke-opacity="0.045" stroke-width="1"/><line x1="1920" y1="0" x2="1920" y2="640" stroke="#a78bfa" stroke-opacity="0.045" stroke-width="1"/><line x1="0" y1="0" x2="1920" y2="0" stroke="#a78bfa" stroke-opacity="0.045" stroke-width="1"/><line x1="0" y1="64" x2="1920" y2="64" stroke="#a78bfa" stroke-opacity="0.045" stroke-width="1"/><line x1="0" y1="128" x2="1920" y2="128" stroke="#a78bfa" stroke-opacity="0.045" stroke-width="1"/><line x1="0" y1="192" x2="1920" y2="192" stroke="#a78bfa" stroke-opacity="0.045" stroke-width="1"/><line x1="0" y1="256" x2="1920" y2="256" stroke="#a78bfa" stroke-opacity="0.045" stroke-width="1"/><line x1="0" y1="320" x2="1920" y2="320" stroke="#a78bfa" stroke-opacity="0.045" stroke-width="1"/><line x1="0" y1="384" x2="1920" y2="384" stroke="#a78bfa" stroke-opacity="0.045" stroke-width="1"/><line x1="0" y1="448" x2="1920" y2="448" stroke="#a78bfa" stroke-opacity="0.045" stroke-width="1"/><line x1="0" y1="512" x2="1920" y2="512" stroke="#a78bfa" stroke-opacity="0.045" stroke-width="1"/><line x1="0" y1="576" x2="1920" y2="576" stroke="#a78bfa" stroke-opacity="0.045" stroke-width="1"/><line x1="0" y1="640" x2="1920" y2="640" stroke="#a78bfa" stroke-opacity="0.045" stroke-width="1"/></g><g filter="url(#soft)"><line x1="1216.5" y1="54.0" x2="1336.4" y2="65.7" stroke="#8b5cf6" stroke-opacity="0.14" stroke-width="1"/><line x1="1216.5" y1="54.0" x2="1209.7" y2="244.3" stroke="#c4b5fd" stroke-opacity="0.28" stroke-width="1"/><line x1="546.1" y1="165.0" x2="527.4" y2="178.1" stroke="#8b5cf6" stroke-opacity="0.14" stroke-width="1"/><line x1="546.1" y1="165.0" x2="620.4" y2="189.9" stroke="#8b5cf6" stroke-opacity="0.14" stroke-width="1"/><line x1="1395.1" y1="419.0" x2="1522.7" y2="431.0" stroke="#8b5cf6" stroke-opacity="0.14" stroke-width="1"/><line x1="1395.1" y1="419.0" x2="1525.1" y2="448.6" stroke="#8b5cf6" stroke-opacity="0.14" stroke-width="1"/><line x1="1681.6" y1="88.7" x2="1652.5" y2="216.2" stroke="#8b5cf6" stroke-opacity="0.14" stroke-width="1"/><line x1="1681.6" y1="88.7" x2="1529.4" y2="43.6" stroke="#8b5cf6" stroke-opacity="0.14" stroke-width="1"/><line x1="816.3" y1="56.7" x2="774.9" y2="162.8" stroke="#c4b5fd" stroke-opacity="0.28" stroke-width="1"/><line x1="816.3" y1="56.7" x2="721.1" y2="157.3" stroke="#c4b5fd" stroke-opacity="0.28" stroke-width="1"/><line x1="442.3" y1="323.0" x2="445.6" y2="370.0" stroke="#8b5cf6" stroke-opacity="0.14" stroke-width="1"/><line x1="442.3" y1="323.0" x2="459.3" y2="202.1" stroke="#8b5cf6" stroke-opacity="0.14" stroke-width="1"/><line x1="88.8" y1="151.3" x2="186.8" y2="170.4" stroke="#8b5cf6" stroke-opacity="0.14" stroke-width="1"/><line x1="88.8" y1="151.3" x2="210.7" y2="94.2" stroke="#8b5cf6" stroke-opacity="0.14" stroke-width="1"/><line x1="1235.8" y1="345.2" x2="1232.4" y2="381.1" stroke="#c4b5fd" stroke-opacity="0.28" stroke-width="1"/><line x1="1235.8" y1="345.2" x2="1246.0" y2="261.6" stroke="#8b5cf6" stroke-opacity="0.14" stroke-width="1"/><line x1="445.6" y1="370.0" x2="442.3" y2="323.0" stroke="#8b5cf6" stroke-opacity="0.14" stroke-width="1"/><line x1="445.6" y1="370.0" x2="354.9" y2="448.3" stroke="#8b5cf6" stroke-opacity="0.14" stroke-width="1"/><line x1="1529.4" y1="43.6" x2="1681.6" y2="88.7" stroke="#8b5cf6" stroke-opacity="0.14" stroke-width="1"/><line x1="1529.4" y1="43.6" x2="1336.4" y2="65.7" stroke="#8b5cf6" stroke-opacity="0.14" stroke-width="1"/><line x1="1522.7" y1="431.0" x2="1525.1" y2="448.6" stroke="#8b5cf6" stroke-opacity="0.14" stroke-width="1"/><line x1="1522.7" y1="431.0" x2="1566.1" y2="386.4" stroke="#8b5cf6" stroke-opacity="0.14" stroke-width="1"/><line x1="666.1" y1="127.1" x2="721.1" y2="157.3" stroke="#8b5cf6" stroke-opacity="0.14" stroke-width="1"/><line x1="666.1" y1="127.1" x2="620.4" y2="189.9" stroke="#8b5cf6" stroke-opacity="0.14" stroke-width="1"/><line x1="1801.3" y1="228.5" x2="1722.8" y2="297.0" stroke="#c4b5fd" stroke-opacity="0.28" stroke-width="1"/><line x1="1801.3" y1="228.5" x2="1875.5" y2="325.3" stroke="#c4b5fd" stroke-opacity="0.28" stroke-width="1"/><line x1="210.7" y1="94.2" x2="207.3" y2="66.4" stroke="#8b5cf6" stroke-opacity="0.14" stroke-width="1"/><line x1="210.7" y1="94.2" x2="186.8" y2="170.4" stroke="#8b5cf6" stroke-opacity="0.14" stroke-width="1"/><line x1="1599.4" y1="378.1" x2="1625.5" y2="363.3" stroke="#8b5cf6" stroke-opacity="0.14" stroke-width="1"/><line x1="1599.4" y1="378.1" x2="1566.1" y2="386.4" stroke="#8b5cf6" stroke-opacity="0.14" stroke-width="1"/><line x1="1525.1" y1="448.6" x2="1522.7" y2="431.0" stroke="#8b5cf6" stroke-opacity="0.14" stroke-width="1"/><line x1="1525.1" y1="448.6" x2="1590.8" y2="474.6" stroke="#8b5cf6" stroke-opacity="0.14" stroke-width="1"/><line x1="1026.7" y1="584.9" x2="1115.6" y2="542.8" stroke="#8b5cf6" stroke-opacity="0.14" stroke-width="1"/><line x1="1026.7" y1="584.9" x2="1064.8" y2="423.4" stroke="#8b5cf6" stroke-opacity="0.14" stroke-width="1"/><line x1="736.5" y1="349.1" x2="774.9" y2="162.8" stroke="#8b5cf6" stroke-opacity="0.14" stroke-width="1"/><line x1="736.5" y1="349.1" x2="721.1" y2="157.3" stroke="#8b5cf6" stroke-opacity="0.14" stroke-width="1"/><line x1="1566.1" y1="386.4" x2="1599.4" y2="378.1" stroke="#8b5cf6" stroke-opacity="0.14" stroke-width="1"/><line x1="1566.1" y1="386.4" x2="1522.7" y2="431.0" stroke="#8b5cf6" stroke-opacity="0.14" stroke-width="1"/><line x1="1625.5" y1="363.3" x2="1599.4" y2="378.1" stroke="#8b5cf6" stroke-opacity="0.14" stroke-width="1"/><line x1="1625.5" y1="363.3" x2="1566.1" y2="386.4" stroke="#8b5cf6" stroke-opacity="0.14" stroke-width="1"/><line x1="1336.4" y1="65.7" x2="1216.5" y2="54.0" stroke="#8b5cf6" stroke-opacity="0.14" stroke-width="1"/><line x1="1336.4" y1="65.7" x2="1529.4" y2="43.6" stroke="#8b5cf6" stroke-opacity="0.14" stroke-width="1"/><line x1="459.3" y1="202.1" x2="527.4" y2="178.1" stroke="#8b5cf6" stroke-opacity="0.14" stroke-width="1"/><line x1="459.3" y1="202.1" x2="546.1" y2="165.0" stroke="#8b5cf6" stroke-opacity="0.14" stroke-width="1"/><line x1="186.8" y1="170.4" x2="225.8" y2="195.7" stroke="#8b5cf6" stroke-opacity="0.14" stroke-width="1"/><line x1="186.8" y1="170.4" x2="210.7" y2="94.2" stroke="#8b5cf6" stroke-opacity="0.14" stroke-width="1"/><line x1="225.8" y1="195.7" x2="186.8" y2="170.4" stroke="#8b5cf6" stroke-opacity="0.14" stroke-width="1"/><line x1="225.8" y1="195.7" x2="210.7" y2="94.2" stroke="#8b5cf6" stroke-opacity="0.14" stroke-width="1"/><line x1="1209.7" y1="244.3" x2="1246.0" y2="261.6" stroke="#c4b5fd" stroke-opacity="0.28" stroke-width="1"/><line x1="1209.7" y1="244.3" x2="1235.8" y2="345.2" stroke="#c4b5fd" stroke-opacity="0.28" stroke-width="1"/><line x1="721.1" y1="157.3" x2="774.9" y2="162.8" stroke="#8b5cf6" stroke-opacity="0.14" stroke-width="1"/><line x1="721.1" y1="157.3" x2="666.1" y2="127.1" stroke="#8b5cf6" stroke-opacity="0.14" stroke-width="1"/><line x1="531.2" y1="564.5" x2="428.2" y2="568.0" stroke="#8b5cf6" stroke-opacity="0.14" stroke-width="1"/><line x1="531.2" y1="564.5" x2="354.9" y2="448.3" stroke="#8b5cf6" stroke-opacity="0.14" stroke-width="1"/><line x1="1232.4" y1="381.1" x2="1235.8" y2="345.2" stroke="#c4b5fd" stroke-opacity="0.28" stroke-width="1"/><line x1="1232.4" y1="381.1" x2="1246.0" y2="261.6" stroke="#c4b5fd" stroke-opacity="0.28" stroke-width="1"/><line x1="354.9" y1="448.3" x2="445.6" y2="370.0" stroke="#8b5cf6" stroke-opacity="0.14" stroke-width="1"/><line x1="354.9" y1="448.3" x2="241.8" y2="391.4" stroke="#8b5cf6" stroke-opacity="0.14" stroke-width="1"/><line x1="340.7" y1="252.5" x2="442.3" y2="323.0" stroke="#8b5cf6" stroke-opacity="0.14" stroke-width="1"/><line x1="340.7" y1="252.5" x2="225.8" y2="195.7" stroke="#8b5cf6" stroke-opacity="0.14" stroke-width="1"/><line x1="1860.7" y1="398.4" x2="1875.5" y2="325.3" stroke="#c4b5fd" stroke-opacity="0.28" stroke-width="1"/><line x1="1860.7" y1="398.4" x2="1722.8" y2="297.0" stroke="#c4b5fd" stroke-opacity="0.28" stroke-width="1"/><line x1="1064.8" y1="423.4" x2="1115.6" y2="542.8" stroke="#8b5cf6" stroke-opacity="0.14" stroke-width="1"/><line x1="1064.8" y1="423.4" x2="1026.7" y2="584.9" stroke="#8b5cf6" stroke-opacity="0.14" stroke-width="1"/><line x1="1590.8" y1="474.6" x2="1525.1" y2="448.6" stroke="#8b5cf6" stroke-opacity="0.14" stroke-width="1"/><line x1="1590.8" y1="474.6" x2="1522.7" y2="431.0" stroke="#8b5cf6" stroke-opacity="0.14" stroke-width="1"/><line x1="461.4" y1="58.0" x2="546.1" y2="165.0" stroke="#8b5cf6" stroke-opacity="0.14" stroke-width="1"/><line x1="461.4" y1="58.0" x2="527.4" y2="178.1" stroke="#8b5cf6" stroke-opacity="0.14" stroke-width="1"/><line x1="620.4" y1="189.9" x2="666.1" y2="127.1" stroke="#8b5cf6" stroke-opacity="0.14" stroke-width="1"/><line x1="620.4" y1="189.9" x2="546.1" y2="165.0" stroke="#8b5cf6" stroke-opacity="0.14" stroke-width="1"/><line x1="428.2" y1="568.0" x2="531.2" y2="564.5" stroke="#8b5cf6" stroke-opacity="0.14" stroke-width="1"/><line x1="428.2" y1="568.0" x2="354.9" y2="448.3" stroke="#8b5cf6" stroke-opacity="0.14" stroke-width="1"/><line x1="1652.5" y1="216.2" x2="1722.8" y2="297.0" stroke="#c4b5fd" stroke-opacity="0.28" stroke-width="1"/><line x1="1652.5" y1="216.2" x2="1681.6" y2="88.7" stroke="#8b5cf6" stroke-opacity="0.14" stroke-width="1"/><line x1="1246.0" y1="261.6" x2="1209.7" y2="244.3" stroke="#c4b5fd" stroke-opacity="0.28" stroke-width="1"/><line x1="1246.0" y1="261.6" x2="1235.8" y2="345.2" stroke="#8b5cf6" stroke-opacity="0.14" stroke-width="1"/><line x1="1722.8" y1="297.0" x2="1801.3" y2="228.5" stroke="#c4b5fd" stroke-opacity="0.28" stroke-width="1"/><line x1="1722.8" y1="297.0" x2="1652.5" y2="216.2" stroke="#c4b5fd" stroke-opacity="0.28" stroke-width="1"/><line x1="527.4" y1="178.1" x2="546.1" y2="165.0" stroke="#8b5cf6" stroke-opacity="0.14" stroke-width="1"/><line x1="527.4" y1="178.1" x2="459.3" y2="202.1" stroke="#8b5cf6" stroke-opacity="0.14" stroke-width="1"/><line x1="1072.9" y1="187.1" x2="1209.7" y2="244.3" stroke="#c4b5fd" stroke-opacity="0.28" stroke-width="1"/><line x1="1072.9" y1="187.1" x2="1246.0" y2="261.6" stroke="#8b5cf6" stroke-opacity="0.14" stroke-width="1"/><line x1="1115.6" y1="542.8" x2="1026.7" y2="584.9" stroke="#8b5cf6" stroke-opacity="0.14" stroke-width="1"/><line x1="1115.6" y1="542.8" x2="1064.8" y2="423.4" stroke="#8b5cf6" stroke-opacity="0.14" stroke-width="1"/><line x1="774.9" y1="162.8" x2="721.1" y2="157.3" stroke="#8b5cf6" stroke-opacity="0.14" stroke-width="1"/><line x1="774.9" y1="162.8" x2="816.3" y2="56.7" stroke="#c4b5fd" stroke-opacity="0.28" stroke-width="1"/><line x1="1875.5" y1="325.3" x2="1860.7" y2="398.4" stroke="#c4b5fd" stroke-opacity="0.28" stroke-width="1"/><line x1="1875.5" y1="325.3" x2="1801.3" y2="228.5" stroke="#c4b5fd" stroke-opacity="0.28" stroke-width="1"/><line x1="207.3" y1="66.4" x2="210.7" y2="94.2" stroke="#8b5cf6" stroke-opacity="0.14" stroke-width="1"/><line x1="207.3" y1="66.4" x2="186.8" y2="170.4" stroke="#8b5cf6" stroke-opacity="0.14" stroke-width="1"/><line x1="241.8" y1="391.4" x2="354.9" y2="448.3" stroke="#8b5cf6" stroke-opacity="0.14" stroke-width="1"/><line x1="241.8" y1="391.4" x2="340.7" y2="252.5" stroke="#8b5cf6" stroke-opacity="0.14" stroke-width="1"/></g><g><circle cx="1216.5" cy="54.0" r="2.2" fill="#a78bfa" fill-opacity="0.70"/><circle cx="546.1" cy="165.0" r="2.4" fill="#a78bfa" fill-opacity="0.69"/><circle cx="1395.1" cy="419.0" r="3.0" fill="#a78bfa" fill-opacity="0.35"/><circle cx="1681.6" cy="88.7" r="2.8" fill="#a78bfa" fill-opacity="0.59"/><circle cx="816.3" cy="56.7" r="13.1" fill="none" stroke="#c4b5fd" stroke-opacity="0.25" stroke-width="1"/><circle cx="816.3" cy="56.7" r="6.1" fill="#c4b5fd" fill-opacity="0.90"/><circle cx="442.3" cy="323.0" r="2.0" fill="#a78bfa" fill-opacity="0.57"/><circle cx="88.8" cy="151.3" r="1.8" fill="#a78bfa" fill-opacity="0.50"/><circle cx="1235.8" cy="345.2" r="2.3" fill="#a78bfa" fill-opacity="0.68"/><circle cx="445.6" cy="370.0" r="3.0" fill="#a78bfa" fill-opacity="0.44"/><circle cx="1529.4" cy="43.6" r="2.4" fill="#a78bfa" fill-opacity="0.41"/><circle cx="1522.7" cy="431.0" r="3.1" fill="#a78bfa" fill-opacity="0.65"/><circle cx="666.1" cy="127.1" r="2.1" fill="#a78bfa" fill-opacity="0.57"/><circle cx="1801.3" cy="228.5" r="2.6" fill="#a78bfa" fill-opacity="0.40"/><circle cx="210.7" cy="94.2" r="2.8" fill="#a78bfa" fill-opacity="0.54"/><circle cx="1599.4" cy="378.1" r="2.8" fill="#a78bfa" fill-opacity="0.54"/><circle cx="1525.1" cy="448.6" r="1.6" fill="#a78bfa" fill-opacity="0.46"/><circle cx="1026.7" cy="584.9" r="1.6" fill="#a78bfa" fill-opacity="0.68"/><circle cx="736.5" cy="349.1" r="3.0" fill="#a78bfa" fill-opacity="0.64"/><circle cx="1566.1" cy="386.4" r="2.1" fill="#a78bfa" fill-opacity="0.37"/><circle cx="1625.5" cy="363.3" r="3.0" fill="#a78bfa" fill-opacity="0.68"/><circle cx="1336.4" cy="65.7" r="1.7" fill="#a78bfa" fill-opacity="0.52"/><circle cx="459.3" cy="202.1" r="1.7" fill="#a78bfa" fill-opacity="0.62"/><circle cx="186.8" cy="170.4" r="2.8" fill="#a78bfa" fill-opacity="0.39"/><circle cx="225.8" cy="195.7" r="2.4" fill="#a78bfa" fill-opacity="0.54"/><circle cx="1209.7" cy="244.3" r="12.5" fill="none" stroke="#c4b5fd" stroke-opacity="0.25" stroke-width="1"/><circle cx="1209.7" cy="244.3" r="5.5" fill="#c4b5fd" fill-opacity="0.90"/><circle cx="721.1" cy="157.3" r="3.0" fill="#a78bfa" fill-opacity="0.50"/><circle cx="531.2" cy="564.5" r="1.9" fill="#a78bfa" fill-opacity="0.54"/><circle cx="1232.4" cy="381.1" r="13.5" fill="none" stroke="#c4b5fd" stroke-opacity="0.25" stroke-width="1"/><circle cx="1232.4" cy="381.1" r="6.5" fill="#c4b5fd" fill-opacity="0.90"/><circle cx="354.9" cy="448.3" r="1.9" fill="#a78bfa" fill-opacity="0.46"/><circle cx="340.7" cy="252.5" r="3.2" fill="#a78bfa" fill-opacity="0.58"/><circle cx="1860.7" cy="398.4" r="2.3" fill="#a78bfa" fill-opacity="0.53"/><circle cx="1064.8" cy="423.4" r="1.8" fill="#a78bfa" fill-opacity="0.43"/><circle cx="1590.8" cy="474.6" r="2.1" fill="#a78bfa" fill-opacity="0.56"/><circle cx="461.4" cy="58.0" r="2.0" fill="#a78bfa" fill-opacity="0.43"/><circle cx="620.4" cy="189.9" r="1.7" fill="#a78bfa" fill-opacity="0.57"/><circle cx="428.2" cy="568.0" r="2.0" fill="#a78bfa" fill-opacity="0.67"/><circle cx="1652.5" cy="216.2" r="3.0" fill="#a78bfa" fill-opacity="0.37"/><circle cx="1246.0" cy="261.6" r="2.0" fill="#a78bfa" fill-opacity="0.58"/><circle cx="1722.8" cy="297.0" r="12.4" fill="none" stroke="#c4b5fd" stroke-opacity="0.25" stroke-width="1"/><circle cx="1722.8" cy="297.0" r="5.4" fill="#c4b5fd" fill-opacity="0.90"/><circle cx="527.4" cy="178.1" r="1.8" fill="#a78bfa" fill-opacity="0.68"/><circle cx="1072.9" cy="187.1" r="2.5" fill="#a78bfa" fill-opacity="0.52"/><circle cx="1115.6" cy="542.8" r="2.9" fill="#a78bfa" fill-opacity="0.63"/><circle cx="774.9" cy="162.8" r="1.9" fill="#a78bfa" fill-opacity="0.38"/><circle cx="1875.5" cy="325.3" r="12.9" fill="none" stroke="#c4b5fd" stroke-opacity="0.25" stroke-width="1"/><circle cx="1875.5" cy="325.3" r="5.9" fill="#c4b5fd" fill-opacity="0.90"/><circle cx="207.3" cy="66.4" r="2.3" fill="#a78bfa" fill-opacity="0.51"/><circle cx="241.8" cy="391.4" r="2.8" fill="#a78bfa" fill-opacity="0.59"/></g>
<rect x="0" y="0" width="1920" height="640" fill="none"/>
<linearGradient id="vign" x1="0" y1="0" x2="0" y2="1">
  <stop offset="0%" stop-color="#0b0614" stop-opacity="0.55"/>
  <stop offset="18%" stop-color="#0b0614" stop-opacity="0"/>
  <stop offset="82%" stop-color="#0b0614" stop-opacity="0"/>
  <stop offset="100%" stop-color="#0b0614" stop-opacity="0.6"/>
</linearGradient>
<rect x="0" y="0" width="1920" height="640" fill="url(#vign)"/>
</svg>